<svg width="62" height="62" viewBox="0 0 62 62" fill="none" xmlns="http://www.w3.org/2000/svg">
<path fill-rule="evenodd" clip-rule="evenodd" d="M6.9375 20.0625V6.9375H20.0625V20.0625H6.9375ZM0.375 4.75C0.375 3.58968 0.835936 2.47688 1.65641 1.65641C2.47688 0.835936 3.58968 0.375 4.75 0.375H22.25C23.4103 0.375 24.5231 0.835936 25.3436 1.65641C26.1641 2.47688 26.625 3.58968 26.625 4.75V22.25C26.625 23.4103 26.1641 24.5231 25.3436 25.3436C24.5231 26.1641 23.4103 26.625 22.25 26.625H4.75C3.58968 26.625 2.47688 26.1641 1.65641 25.3436C0.835936 24.5231 0.375 23.4103 0.375 22.25V4.75ZM35.375 5.84375C35.375 4.97351 35.7207 4.13891 36.3361 3.52356C36.9514 2.9082 37.786 2.5625 38.6562 2.5625H58.3438C59.214 2.5625 60.0486 2.9082 60.6639 3.52356C61.2793 4.13891 61.625 4.97351 61.625 5.84375C61.625 6.71399 61.2793 7.54859 60.6639 8.16394C60.0486 8.7793 59.214 9.125 58.3438 9.125H38.6562C37.786 9.125 36.9514 8.7793 36.3361 8.16394C35.7207 7.54859 35.375 6.71399 35.375 5.84375ZM38.6562 17.875C37.786 17.875 36.9514 18.2207 36.3361 18.8361C35.7207 19.4514 35.375 20.286 35.375 21.1562C35.375 22.0265 35.7207 22.8611 36.3361 23.4764C36.9514 24.0918 37.786 24.4375 38.6562 24.4375H58.3438C59.214 24.4375 60.0486 24.0918 60.6639 23.4764C61.2793 22.8611 61.625 22.0265 61.625 21.1562C61.625 20.286 61.2793 19.4514 60.6639 18.8361C60.0486 18.2207 59.214 17.875 58.3438 17.875H38.6562ZM6.9375 41.9375V55.0625H20.0625V41.9375H6.9375ZM4.75 35.375C3.58968 35.375 2.47688 35.8359 1.65641 36.6564C0.835936 37.4769 0.375 38.5897 0.375 39.75V57.25C0.375 58.4103 0.835936 59.5231 1.65641 60.3436C2.47688 61.1641 3.58968 61.625 4.75 61.625H22.25C23.4103 61.625 24.5231 61.1641 25.3436 60.3436C26.1641 59.5231 26.625 58.4103 26.625 57.25V39.75C26.625 38.5897 26.1641 37.4769 25.3436 36.6564C24.5231 35.8359 23.4103 35.375 22.25 35.375H4.75ZM38.6562 37.5625C37.786 37.5625 36.9514 37.9082 36.3361 38.5236C35.7207 39.1389 35.375 39.9735 35.375 40.8438C35.375 41.714 35.7207 42.5486 36.3361 43.1639C36.9514 43.7793 37.786 44.125 38.6562 44.125H58.3438C59.214 44.125 60.0486 43.7793 60.6639 43.1639C61.2793 42.5486 61.625 41.714 61.625 40.8438C61.625 39.9735 61.2793 39.1389 60.6639 38.5236C60.0486 37.9082 59.214 37.5625 58.3438 37.5625H38.6562ZM38.6562 52.875C37.786 52.875 36.9514 53.2207 36.3361 53.8361C35.7207 54.4514 35.375 55.286 35.375 56.1562C35.375 57.0265 35.7207 57.8611 36.3361 58.4764C36.9514 59.0918 37.786 59.4375 38.6562 59.4375H58.3438C59.214 59.4375 60.0486 59.0918 60.6639 58.4764C61.2793 57.8611 61.625 57.0265 61.625 56.1562C61.625 55.286 61.2793 54.4514 60.6639 53.8361C60.0486 53.2207 59.214 52.875 58.3438 52.875H38.6562Z" fill="black"/>
</svg>
