<svg width="42" height="42" viewBox="0 0 42 42" fill="none" xmlns="http://www.w3.org/2000/svg">
<path d="M21 0.166626C9.49996 0.166626 0.166626 9.49996 0.166626 21C0.166626 32.5 9.49996 41.8333 21 41.8333C32.5 41.8333 41.8333 32.5 41.8333 21C41.8333 9.49996 32.5 0.166626 21 0.166626ZM21 8.49996C25.0208 8.49996 28.2916 11.7708 28.2916 15.7916C28.2916 19.8125 25.0208 23.0833 21 23.0833C16.9791 23.0833 13.7083 19.8125 13.7083 15.7916C13.7083 11.7708 16.9791 8.49996 21 8.49996ZM21 37.6666C16.7708 37.6666 11.7708 35.9583 8.20829 31.6666C11.8575 28.8035 16.3617 27.2475 21 27.2475C25.6382 27.2475 30.1424 28.8035 33.7916 31.6666C30.2291 35.9583 25.2291 37.6666 21 37.6666Z" fill="black"/>
</svg>
