<svg width="58" height="60" viewBox="0 0 58 60" fill="none" xmlns="http://www.w3.org/2000/svg">
<path d="M29 18.3333C32.0942 18.3333 35.0617 19.5624 37.2496 21.7503C39.4375 23.9383 40.6667 26.9057 40.6667 29.9999C40.6667 33.0941 39.4375 36.0616 37.2496 38.2495C35.0617 40.4374 32.0942 41.6666 29 41.6666C25.9058 41.6666 22.9384 40.4374 20.7504 38.2495C18.5625 36.0616 17.3333 33.0941 17.3333 29.9999C17.3333 26.9057 18.5625 23.9383 20.7504 21.7503C22.9384 19.5624 25.9058 18.3333 29 18.3333ZM29 24.1666C27.4529 24.1666 25.9692 24.7812 24.8752 25.8751C23.7813 26.9691 23.1667 28.4528 23.1667 29.9999C23.1667 31.547 23.7813 33.0307 24.8752 34.1247C25.9692 35.2187 27.4529 35.8333 29 35.8333C30.5471 35.8333 32.0308 35.2187 33.1248 34.1247C34.2188 33.0307 34.8333 31.547 34.8333 29.9999C34.8333 28.4528 34.2188 26.9691 33.1248 25.8751C32.0308 24.7812 30.5471 24.1666 29 24.1666ZM23.1667 59.1666C22.4375 59.1666 21.825 58.6416 21.7083 57.9416L20.6292 50.2124C18.7917 49.4833 17.2167 48.4916 15.7 47.3249L8.43751 50.2708C7.79585 50.5041 7.00835 50.2708 6.65835 49.6291L0.825012 39.5374C0.646499 39.2369 0.583567 38.8816 0.647984 38.5381C0.712401 38.1945 0.899756 37.8862 1.17501 37.6708L7.32918 32.8291L7.12501 29.9999L7.32918 27.0833L1.17501 22.3291C0.899756 22.1136 0.712401 21.8053 0.647984 21.4618C0.583567 21.1182 0.646499 20.7629 0.825012 20.4624L6.65835 10.3708C7.00835 9.72909 7.79585 9.46659 8.43751 9.72909L15.7 12.6458C17.2167 11.5083 18.7917 10.5166 20.6292 9.78742L21.7083 2.05825C21.825 1.35825 22.4375 0.833252 23.1667 0.833252H34.8333C35.5625 0.833252 36.175 1.35825 36.2917 2.05825L37.3708 9.78742C39.2083 10.5166 40.7833 11.5083 42.3 12.6458L49.5625 9.72909C50.2042 9.46659 50.9917 9.72909 51.3417 10.3708L57.175 20.4624C57.5542 21.1041 57.3792 21.8916 56.825 22.3291L50.6708 27.0833L50.875 29.9999L50.6708 32.9166L56.825 37.6708C57.3792 38.1083 57.5542 38.8958 57.175 39.5374L51.3417 49.6291C50.9917 50.2708 50.2042 50.5333 49.5625 50.2708L42.3 47.3541C40.7833 48.4916 39.2083 49.4833 37.3708 50.2124L36.2917 57.9416C36.175 58.6416 35.5625 59.1666 34.8333 59.1666H23.1667ZM26.8125 6.66659L25.7333 14.2791C22.2333 15.0083 19.1417 16.8749 16.8958 19.4708L9.86668 16.4374L7.67918 20.2291L13.8333 24.7499C12.6667 28.1527 12.6667 31.8471 13.8333 35.2499L7.65001 39.7999L9.83751 43.5916L16.925 40.5583C19.1708 43.1249 22.2333 44.9916 25.7042 45.6916L26.7833 53.3333H31.2167L32.2958 45.7208C35.7667 44.9916 38.8292 43.1249 41.075 40.5583L48.1625 43.5916L50.35 39.7999L44.1667 35.2791C45.3333 31.8666 45.3333 28.1624 44.1667 24.7499L50.3208 20.2291L48.1333 16.4374L41.1042 19.4708C38.8123 16.8175 35.7035 15.0015 32.2667 14.3083L31.1875 6.66659H26.8125Z" fill="black"/>
</svg>
